PathFileType	4	(X/Y/Z)	..\data\2014030\dynamic\2014030_C5_02.trc
DataRate	CameraRate	NumFrames	NumMarkers	Units	OrigDataRate	OrigDataStartFrame	OrigNumFrames
100.000000	100.000000	4	52	mm	100.000000	38	155
Frame#	Time	L_IAS			L_IPS			R_IPS			R_IAS			L_FTC			L_FLE			L_FME			L_FAX			L_TTC			L_FAL			L_TAM			L_FCC			L_FM1			L_FM2			L_FM5			R_FTC			R_FLE			R_FME			R_FAX			R_TTC			R_FAL			R_TAM			R_FCC			R_FM1			R_FM2			R_FM5			CV7			TV10			SXS			SJN			L_SIA			L_SRS			L_SAA			L_SAE			L_HLE			L_HME			L_UOA			L_RSP			L_UHE			L_HM2			L_HM5			R_SIA			R_SRS			R_SAA			R_SAE			R_HLE			R_HME			R_UOA			R_RSP			R_UHE			R_HM2			R_HM5			
		X1	Y1	Z1	X2	Y2	Z2	X3	Y3	Z3	X4	Y4	Z4	X5	Y5	Z5	X6	Y6	Z6	X7	Y7	Z7	X8	Y8	Z8	X9	Y9	Z9	X10	Y10	Z10	X11	Y11	Z11	X12	Y12	Z12	X13	Y13	Z13	X14	Y14	Z14	X15	Y15	Z15	X16	Y16	Z16	X17	Y17	Z17	X18	Y18	Z18	X19	Y19	Z19	X20	Y20	Z20	X21	Y21	Z21	X22	Y22	Z22	X23	Y23	Z23	X24	Y24	Z24	X25	Y25	Z25	X26	Y26	Z26	X27	Y27	Z27	X28	Y28	Z28	X29	Y29	Z29	X30	Y30	Z30	X31	Y31	Z31	X32	Y32	Z32	X33	Y33	Z33	X34	Y34	Z34	X35	Y35	Z35	X36	Y36	Z36	X37	Y37	Z37	X38	Y38	Z38	X39	Y39	Z39	X40	Y40	Z40	X41	Y41	Z41	X42	Y42	Z42	X43	Y43	Z43	X44	Y44	Z44	X45	Y45	Z45	X46	Y46	Z46	X47	Y47	Z47	X48	Y48	Z48	X49	Y49	Z49	X50	Y50	Z50	X51	Y51	Z51	X52	Y52	Z52	

39	0.38	272.5475158691407	930.7097167968752	-344.7790222167969	75.56873321533205	974.9837036132815	-268.5130004882813	78.54819488525392	983.6489868164065	-153.3662719726563	281.7263488769532	940.403991699219	-90.53917694091798	208.0987854003907	860.6187744140627	-394.2379455566407	356.9983215332032	494.339569091797	-345.0397949218751	374.1685180664063	497.2846679687501	-226.0599060058594	346.1811218261719	435.2501220703126	-348.0426025390626	403.4658203125001	433.0081481933595	-291.5851745605469	259.0325622558594	109.5936737060547	-335.8182067871094	274.5621337890626	118.5171203613282	-246.7383117675782	205.2794189453126	70.97325897216798	-295.0621948242188	387.5804443359376	43.82119750976563	-253.1890716552735	393.5404052734376	53.02589035034181	-308.2837219238282	358.7834167480469	34.92147827148438	-352.8951721191407	196.0391693115235	860.0213012695315	-35.43960189819337	185.4271087646485	462.2659606933595	-112.6837997436524	173.1958160400391	469.5982971191407	-235.8710479736329	168.0123443603516	402.5559387207032	-115.0293655395508	216.3637695312501	396.4927673339845	-177.9477081298828	92.66080474853517	72.70361328125001	-149.9581604003907	101.6295394897461	82.06015014648439	-240.4805603027344	36.44942855834962	22.28063583374024	-191.5687103271485	221.2037353515626	15.19954013824463	-229.2174682617188	232.6420440673829	34.13476181030274	-170.523666381836	185.3458251953125	14.06027889251709	-115.6606826782227	162.2973785400391	1435.284423828125	-202.4260711669922	81.99977874755861	1209.487670898438	-227.1946716308594	315.2808227539063	1120.98193359375	-233.3479919433594	285.8005065917969	1338.129516601563	-224.2349243164063	72.17659759521486	1242.628295898438	-316.7486877441407	111.0624542236328	1373.439331054688	-321.5568847656251	158.4602966308594	1376.065795898438	-390.4739990234376	212.4266510009766	1383.394165039063	-409.8230590820314	138.3976440429688	1078.86181640625	-488.1454162597657	86.2285614013672	1084.227416992188	-432.6203918457032	96.52635192871097	1059.546875	-470.661590576172	180.7028961181641	838.8347167968752	-421.9078369140626	157.3126831054688	846.4058837890627	-491.6385192871095	185.8764801025391	750.2788696289064	-415.4708557128907	137.7488403320313	779.1827392578127	-504.0023498535157	80.13682556152345	1230.708129882813	-133.9329986572266	125.914176940918	1351.541870117188	-106.0614013671875	170.32763671875	1350.8017578125	-53.59487533569337	223.3506622314454	1353.916381835938	-35.50157546997071	235.6094665527344	1033.142944335938	37.97864532470704	194.0229797363282	1011.947937011719	-30.64234161376954	205.0082397460938	994.6402587890627	13.88680362701416	371.4374694824219	835.2083740234377	-25.25786972045899	328.0869140625001	816.8066406250002	38.82272338867188	432.0267639160157	771.545349121094	-19.95779991149903	361.3243103027344	753.7481689453126	48.8977394104004	
40	0.39	285.9537048339844	929.5733642578127	-345.0720825195313	88.6520462036133	973.905700683594	-269.3529663085938	90.99084472656251	982.5266113281252	-154.2522888183594	294.1008300781251	938.5815429687502	-90.55288696289064	221.3505859375001	859.837585449219	-395.0873413085939	370.3844299316407	493.0106506347657	-345.0314331054688	386.711151123047	496.1515502929689	-225.8551635742188	362.4830017089844	433.2041931152345	-347.6590270996094	419.6793212890626	434.0855407714845	-291.1889953613282	298.1202087402344	102.7912902832032	-334.3145446777344	312.9490051269532	113.0701675415039	-245.3788299560547	247.1808471679688	61.01869201660158	-293.3733825683594	430.7525024414064	46.74880981445313	-251.4873046875001	435.8736877441407	56.03204345703126	-306.6290283203126	402.4761047363282	35.23628616333009	-351.0300598144532	207.4912109375001	858.7551879882815	-35.84743118286134	190.7841033935547	461.3959045410157	-113.2363739013672	178.720458984375	469.0237731933595	-236.4333190917969	172.6407928466797	401.814422607422	-115.5842590332032	220.7997131347657	395.0800781250001	-178.7313079833985	93.24219512939455	72.93166351318361	-150.5247497558594	102.2890090942383	82.00129699707033	-241.1949920654297	36.68579101562501	22.91679000854493	-192.0397491455079	221.3988189697266	14.90540027618409	-229.4965362548829	232.7444152832032	34.03503799438477	-170.7597808837891	185.2765808105469	14.17980480194092	-115.9089279174805	174.9917449951172	1434.171997070313	-202.4464416503907	94.76904296875001	1208.388061523438	-227.2140045166016	327.8800048828126	1119.989013671875	-233.7796325683594	298.6476135253907	1337.345703125	-224.8601074218751	84.68102264404298	1241.397338867188	-316.3769836425782	123.5450286865235	1372.226196289063	-321.3692932128907	170.5892333984375	1374.995727539063	-390.4165039062501	224.392562866211	1382.385986328125	-410.1237792968751	146.6632690429688	1078.62939453125	-487.5003662109376	95.03862762451173	1084.646118164063	-431.6057128906251	104.719970703125	1060.041381835938	-469.7817687988282	184.944808959961	837.7235107421877	-422.2486267089845	161.4381256103516	845.9093017578127	-491.7940063476564	187.7125549316407	749.0250854492189	-415.7189025878907	140.2301788330078	779.067077636719	-504.1678466796876	93.14110565185548	1229.60107421875	-133.6775512695313	138.9124145507813	1350.491455078125	-105.8796920776367	183.619369506836	1349.735107421875	-53.57313537597658	236.7022857666016	1352.892700195313	-35.79263305664063	253.1053314208985	1032.372192382813	37.44020080566407	211.5787658691407	1010.473388671875	-30.95777702331544	223.1949462890626	993.1175537109377	13.34874534606934	393.1177062988282	838.007995605469	-28.2115821838379	350.6422729492188	818.015563964844	35.99721145629884	455.3054809570314	775.7456054687502	-23.63860130310059	385.2802124023439	755.6391601562501	45.33919525146485	
41	0.4	299.3958740234376	928.2196044921877	-345.5000610351563	101.6785507202149	972.679870605469	-270.2214660644532	103.5572967529297	981.1912231445315	-155.1731872558594	306.6265563964844	936.6700439453127	-90.64119720458986	234.4769592285157	858.8152465820315	-395.9327392578126	382.9992980957032	491.1543884277345	-345.0972900390626	398.1177673339845	494.3663024902345	-225.6485443115235	378.1466064453126	430.789764404297	-347.3095092773438	435.0734863281251	434.8367309570314	-290.7565002441407	337.3076171875001	97.03935241699222	-332.8633117675782	351.2421264648438	108.7618637084961	-244.0426483154297	289.3771362304688	52.2608985900879	-291.7734375000001	473.2461242675782	50.99871063232423	-249.5440216064454	477.7175598144532	60.27551269531251	-304.7369384765626	445.9724426269532	36.81551361083985	-348.9850463867188	218.984115600586	857.380065917969	-36.2630844116211	196.3379974365235	460.5012512207032	-113.7851104736328	184.5085754394532	468.4679260253907	-236.9841766357422	177.4447784423828	401.0659790039064	-116.143913269043	225.436752319336	393.6728515625001	-179.4928283691407	93.8584442138672	73.21205139160158	-151.1145629882813	103.0274963378907	82.0551223754883	-241.9316864013672	36.95019531250001	23.65844917297364	-192.5832061767579	221.6255340576172	14.64171123504639	-229.7861328125001	232.8398590087891	33.95275497436524	-170.999496459961	185.2102661132813	14.34961795806885	-116.1978225708008	187.6978302001953	1432.887451171875	-202.5208740234376	107.5756607055664	1207.109741210938	-227.2989349365235	340.5884704589844	1118.831909179688	-234.2862243652344	311.5713500976563	1336.476196289063	-225.6366271972657	97.22058868408206	1239.986572265625	-316.0603332519532	136.0620269775391	1370.837524414063	-321.2429199218751	182.7497711181641	1373.776123046875	-390.4189453125001	236.3815460205079	1381.251098632813	-410.480194091797	155.0029754638672	1078.319580078125	-486.9185791015626	103.9977264404297	1084.891357421875	-430.5809936523439	113.0467224121094	1060.383422851563	-468.909393310547	189.6578369140625	836.6375732421877	-422.6821289062501	165.9189147949219	845.4275512695315	-492.0215148925782	190.1972198486328	747.8444824218751	-416.1107177734376	143.1490173339844	778.975524902344	-504.3582763671876	106.1917572021485	1228.313720703125	-133.4962463378907	151.9350891113282	1349.256713867188	-105.7630996704102	196.9214630126954	1348.4892578125	-53.6169776916504	250.0841674804688	1351.692016601563	-36.14274597167969	270.4943847656251	1031.521484375	36.83158493041993	229.0246124267579	1008.91015625	-31.32087707519532	241.2721252441407	991.5252685546877	12.73754787445069	414.4004211425782	840.653747558594	-31.20127296447755	372.9851074218751	819.1687011718752	33.1550407409668	478.1124267578126	779.8343505859377	-27.40550422668458	408.9166259765626	757.5194091796876	41.77377700805665	
42	0.41	312.8887939453126	926.6833496093752	-346.0462646484376	114.6566009521485	971.3164062500002	-271.1387329101563	116.2470703125	979.6690673828127	-156.1422119140625	319.3108215332032	934.7314453125002	-90.80152893066408	247.5069427490235	857.5540771484377	-396.7493896484376	394.9642944335939	488.8706665039064	-345.2030944824219	408.5308837890626	492.0144653320314	-225.4210052490235	393.2350463867189	428.1182556152345	-346.9824523925782	449.748748779297	435.3100585937501	-290.2704772949219	376.1788635253907	92.4330291748047	-331.5182189941407	389.0542602539064	105.6332244873047	-242.7792053222657	331.3979492187501	44.81035232543946	-290.3293762207032	514.6566772460939	56.44100952148439	-247.4568481445313	518.6768798828126	65.64443969726564	-302.7081909179688	488.8241577148439	39.6102409362793	-346.8584289550782	230.5290069580079	855.9280395507815	-36.68305206298829	202.0985717773438	459.6017150878907	-114.3323059082032	190.5391693115235	467.953338623047	-237.5309600830079	182.4309234619141	400.3288574218751	-116.711784362793	230.2684631347657	392.2927246093751	-180.239730834961	94.50908660888673	73.56776428222658	-151.7280883789063	103.8406295776367	82.25074005126955	-242.6909790039063	37.23622512817384	24.52226638793946	-193.2020416259766	221.8929748535157	14.4022855758667	-230.0774688720704	232.9483642578126	33.89257049560548	-171.2305908203125	185.1606903076172	14.57485294342041	-116.5158309936524	200.4163818359376	1431.453125	-202.6623077392579	120.4209213256836	1205.672119140625	-227.4579315185547	353.4054260253907	1117.53515625	-234.8722229003907	324.5563049316407	1335.521484375	-226.5367736816407	109.8017120361328	1238.418823242188	-315.8149719238282	148.6166381835938	1369.297241210938	-321.1921997070313	194.9532470703126	1372.429931640625	-390.4935913085939	248.4063110351563	1380.0087890625	-410.8992919921876	163.4608917236328	1077.938598632813	-486.4076232910157	113.1317291259766	1084.978515625	-429.5700988769532	121.5432357788086	1060.582885742188	-468.0616455078126	194.852767944336	835.5626220703127	-423.2048950195314	170.7712554931641	844.9488525390627	-492.3180541992189	193.3589477539063	746.7128906250001	-416.6448364257814	146.5324859619141	778.8950195312502	-504.5755004882814	119.2883377075196	1226.869750976563	-133.4011840820313	164.9815521240235	1347.861328125	-105.724838256836	210.2340240478516	1347.090454101563	-53.7387161254883	263.4861145019532	1350.347412109375	-36.56166076660157	287.7585449218751	1030.603393554688	36.14878463745118	246.3287506103516	1007.283752441406	-31.74484634399415	259.2091369628907	989.8831787109377	12.04465675354004	435.2554931640626	843.1363525390627	-34.20026779174805	395.0561523437501	820.2675781250002	30.30590438842774	500.4124450683595	783.8112792968752	-31.22512817382813	432.1838378906251	759.3821411132814	38.21483612060548	
